<svg width="1582" height="1516" viewBox="0 0 1582 1516" fill="none" xmlns="http://www.w3.org/2000/svg">
<path fill-rule="evenodd" clip-rule="evenodd" d="M892.045 9.42433C895.873 18.8027 907.443 36.1559 918.793 52.0224C1294.88 108.904 1582 412.713 1582 778.96C1582 1185.72 1227.86 1515.46 791 1515.46C354.143 1515.46 0 1185.72 0 778.96C0 684.505 19.0969 594.202 53.8917 511.217C49.6116 500.259 43.5582 491.082 38.3336 483.162C34.5607 477.442 31.22 472.378 29.2914 467.771C23.3115 453.487 111.4 329.962 127.168 334.846C133.148 336.698 144.462 338.109 156.477 339.132C278.721 186.489 463.001 79.4485 674.548 50.3859C675.468 47.5283 676.323 44.7434 677.148 42.0585L677.149 42.0574C679.685 33.802 681.931 26.4922 684.861 20.922C693.946 3.65005 884.188 -9.8206 892.045 9.42433Z" fill="url(#paint0_linear_33_3)"/>
<path fill-rule="evenodd" clip-rule="evenodd" d="M892.045 9.42433C895.873 18.8027 907.443 36.1559 918.793 52.0224C1294.88 108.904 1582 412.712 1582 778.96C1582 1185.72 1227.86 1515.46 791 1515.46C354.143 1515.46 0 1185.72 0 778.96C0 684.505 19.0968 594.202 53.8917 511.217C49.6116 500.259 43.5582 491.082 38.3336 483.162C34.5607 477.442 31.22 472.378 29.2914 467.771C23.3115 453.487 111.4 329.962 127.168 334.846C133.148 336.698 144.462 338.109 156.477 339.132C278.721 186.489 463.001 79.4485 674.548 50.3859C675.468 47.5283 676.323 44.7434 677.148 42.0585L677.149 42.0574C679.685 33.802 681.931 26.4922 684.861 20.922C693.946 3.65005 884.188 -9.8206 892.045 9.42433Z" fill="url(#paint1_linear_33_3)"/>
<ellipse cx="788.075" cy="22.3788" rx="87.4835" ry="11.7241" transform="rotate(-2.72978 788.075 22.3788)" fill="#AC5E3E"/>
<g filter="url(#filter0_i_33_3)">
<ellipse cx="444.806" cy="418.908" rx="133.514" ry="77.5877" transform="rotate(-35.2758 444.806 418.908)" fill="#AC5E3E"/>
</g>
<g filter="url(#filter1_i_33_3)">
<ellipse cx="859.456" cy="224.749" rx="60.781" ry="35.321" transform="rotate(-10.8709 859.456 224.749)" fill="#AC5E3E"/>
</g>
<g filter="url(#filter2_i_33_3)">
<ellipse cx="831.793" cy="573.608" rx="47.7911" ry="42.1914" transform="rotate(-35.6843 831.793 573.608)" fill="#AC5E3E"/>
</g>
<defs>
<filter id="filter0_i_33_3" x="326.926" y="319.118" width="239.76" height="203.58" filterUnits="userSpaceOnUse" color-interpolation-filters="sRGB">
<feFlood flood-opacity="0" result="BackgroundImageFix"/>
<feBlend mode="normal" in="SourceGraphic" in2="BackgroundImageFix" result="shape"/>
<feColorMatrix in="SourceAlpha" type="matrix" values="0 0 0 0 0 0 0 0 0 0 0 0 0 0 0 0 0 0 127 0" result="hardAlpha"/>
<feOffset dx="10" dy="10"/>
<feGaussianBlur stdDeviation="2"/>
<feComposite in2="hardAlpha" operator="arithmetic" k2="-1" k3="1"/>
<feColorMatrix type="matrix" values="0 0 0 0 0 0 0 0 0 0 0 0 0 0 0 0 0 0 0.25 0"/>
<feBlend mode="normal" in2="shape" result="effect1_innerShadow_33_3"/>
</filter>
<filter id="filter1_i_33_3" x="799.39" y="188.207" width="124.132" height="77.0841" filterUnits="userSpaceOnUse" color-interpolation-filters="sRGB">
<feFlood flood-opacity="0" result="BackgroundImageFix"/>
<feBlend mode="normal" in="SourceGraphic" in2="BackgroundImageFix" result="shape"/>
<feColorMatrix in="SourceAlpha" type="matrix" values="0 0 0 0 0 0 0 0 0 0 0 0 0 0 0 0 0 0 127 0" result="hardAlpha"/>
<feOffset dx="10" dy="10"/>
<feGaussianBlur stdDeviation="2"/>
<feComposite in2="hardAlpha" operator="arithmetic" k2="-1" k3="1"/>
<feColorMatrix type="matrix" values="0 0 0 0 0 0 0 0 0 0 0 0 0 0 0 0 0 0 0.25 0"/>
<feBlend mode="normal" in2="shape" result="effect1_innerShadow_33_3"/>
</filter>
<filter id="filter2_i_33_3" x="785.825" y="529.43" width="95.9364" height="92.3557" filterUnits="userSpaceOnUse" color-interpolation-filters="sRGB">
<feFlood flood-opacity="0" result="BackgroundImageFix"/>
<feBlend mode="normal" in="SourceGraphic" in2="BackgroundImageFix" result="shape"/>
<feColorMatrix in="SourceAlpha" type="matrix" values="0 0 0 0 0 0 0 0 0 0 0 0 0 0 0 0 0 0 127 0" result="hardAlpha"/>
<feOffset dx="10" dy="10"/>
<feGaussianBlur stdDeviation="2"/>
<feComposite in2="hardAlpha" operator="arithmetic" k2="-1" k3="1"/>
<feColorMatrix type="matrix" values="0 0 0 0 0 0 0 0 0 0 0 0 0 0 0 0 0 0 0.25 0"/>
<feBlend mode="normal" in2="shape" result="effect1_innerShadow_33_3"/>
</filter>
<linearGradient id="paint0_linear_33_3" x1="350" y1="141.96" x2="1409" y2="1309.96" gradientUnits="userSpaceOnUse">
<stop stop-color="#E76220"/>
<stop offset="1" stop-color="#9C5148"/>
</linearGradient>
<linearGradient id="paint1_linear_33_3" x1="350" y1="141.96" x2="945.5" y2="725.46" gradientUnits="userSpaceOnUse">
<stop stop-color="#E76220"/>
<stop offset="0.990665" stop-color="#9C5148"/>
</linearGradient>
</defs>
</svg>
