<svg width="248" height="352" viewBox="0 0 248 352" fill="none" xmlns="http://www.w3.org/2000/svg">
<path d="M0.0301541 351.971C-0.779068 297.349 55.6642 263.463 83.9869 253.347L111.551 351.971H0.0301541Z" fill="#EB4444"/>
<path d="M247.593 351.971C248.402 297.349 191.959 263.463 163.636 253.347L136.072 351.971H247.593Z" fill="#EB4444"/>
<path d="M72.0928 234.128L100.668 351.971H122.163V0.971222C66.934 42.6462 44.6973 86.4453 40.4826 103.135V198.978L72.0928 234.128Z" fill="#DDDDDD"/>
<path d="M171.981 234.128L143.406 351.971H121.911V0.971222C177.14 42.6462 199.377 86.4453 203.591 103.135V198.978L171.981 234.128Z" fill="white"/>
<path d="M158.383 133.228C158.383 151.514 142.386 166.919 121.911 166.919C101.435 166.919 85.4379 151.514 85.4379 133.228C85.4379 114.943 101.435 99.5375 121.911 99.5375C142.386 99.5375 158.383 114.943 158.383 133.228Z" fill="#BCF3FF" stroke="#8B8B8B" stroke-width="10"/>
</svg>
