<svg width="509.479309" height="502.037598" viewBox="0 0 509.479 502.038" fill="none" xmlns="http://www.w3.org/2000/svg" xmlns:xlink="http://www.w3.org/1999/xlink">
	<desc>
			Created with Pixso.
	</desc>
	<defs/>
	<path d="M96.46 479.38C106.36 483.62 126.16 507.66 170 493.52C213.83 479.38 233.63 507.66 309.99 493.52C386.36 479.38 382.11 517.56 430.19 493.52C478.27 469.48 445.75 436.96 430.19 422.82C414.64 408.67 380.7 363.42 421.71 313.93C462.72 264.43 523.53 182.42 506.56 132.92C489.59 83.43 403.33 42.42 298.68 107.47C194.04 172.52 196.86 343.63 154.44 383.22C112.02 422.82 78.08 432.71 96.46 479.38Z" fill="#49CE96" fill-opacity="1.000000" fill-rule="evenodd"/>
	<circle cx="469.440094" cy="166.158447" r="35.352886" fill="#FFFFFF" fill-opacity="1.000000"/>
	<circle cx="483.934814" cy="165.804932" r="20.858202" fill="#000000" fill-opacity="1.000000"/>
	<circle cx="497.368835" cy="158.734619" r="5.302933" fill="#FFFFFF" fill-opacity="1.000000"/>
	<rect x="195.155273" y="18.383545" width="221.309067" height="14.398272" transform="rotate(20.3329 195.155273 18.383545)" fill="#49CE96" fill-opacity="1.000000"/>
	<rect x="269.567932" y="10.605957" width="221.309067" height="14.904973" transform="rotate(23.2417 269.567932 10.605957)" fill="#49CE96" fill-opacity="1.000000"/>
	<ellipse cx="185.909973" cy="21.211670" rx="19.090559" ry="18.383501" fill="#49CE96" fill-opacity="1.000000"/>
	<ellipse cx="269.342773" cy="18.383545" rx="19.090559" ry="18.383501" fill="#49CE96" fill-opacity="1.000000"/>
	<path d="M244.872 161.326C239.632 181.681 236.818 203.238 236.818 225.552C236.818 350.12 324.505 451.103 432.673 451.103C439.306 451.103 445.861 450.723 452.324 449.982C458.762 464.022 457.055 480.098 430.198 493.526C406.069 505.591 395.118 501.985 380.543 497.185C366.076 492.421 348.038 486.482 309.998 493.526C269.577 501.012 245.005 496.61 224.327 492.906C205.941 489.613 190.634 486.871 170.001 493.526C134.616 504.941 114.894 491.479 103.399 483.632C100.652 481.757 98.3757 480.203 96.467 479.385C82.187 443.136 99.4779 429.072 127.793 406.041C135.929 399.422 144.976 392.064 154.446 383.225C187.812 352.083 193.186 239.588 244.872 161.326Z" clip-rule="evenodd" fill="#21B577" fill-opacity="1.000000" fill-rule="evenodd"/>
	<path d="M244.872 161.326C239.632 181.681 236.818 203.238 236.818 225.552C236.818 350.12 324.505 451.103 432.673 451.103C439.306 451.103 445.861 450.723 452.324 449.982C458.762 464.022 457.055 480.098 430.198 493.526C406.069 505.591 395.118 501.985 380.543 497.185C366.076 492.421 348.038 486.482 309.998 493.526C269.577 501.012 245.005 496.61 224.327 492.906C205.941 489.613 190.634 486.871 170.001 493.526C134.616 504.941 114.894 491.479 103.399 483.632C100.652 481.757 98.3757 480.203 96.467 479.385C82.187 443.136 99.4779 429.072 127.793 406.041C135.929 399.422 144.976 392.064 154.446 383.225C187.812 352.083 193.186 239.588 244.872 161.326Z" clip-rule="evenodd" fill="#21B577" fill-opacity="1.000000" fill-rule="evenodd"/>
	<path d="M94.7185 475.511C109.393 480.142 129.3 482.438 156.572 475.475C182.634 468.819 201.97 471.561 225.195 474.854C251.316 478.558 282.355 482.959 333.415 475.475C381.467 468.431 404.252 474.37 422.527 479.133C430.489 481.209 437.596 483.061 445.563 483.519C441.742 487.089 436.642 490.567 430.008 493.884C405.88 505.948 394.928 502.342 380.353 497.543C365.886 492.779 347.848 486.84 309.809 493.884C269.387 501.369 244.815 496.968 224.137 493.264C205.751 489.97 190.444 487.228 169.811 493.884C134.426 505.298 114.705 491.836 103.209 483.99C100.463 482.115 98.1859 480.561 96.2772 479.743C95.7079 478.298 95.1888 476.888 94.7185 475.511Z" clip-rule="evenodd" fill="#1D9260" fill-opacity="1.000000" fill-rule="evenodd"/>
	<path d="M301.7 92.27C272.47 109.71 210.49 157.53 196.35 209.28C178.67 273.98 175.14 323.83 150.39 345.04C125.64 366.25 86.4 314.28 20.29 317.82C-45.82 321.35 66.6 315.34 115.04 304.74C163.47 294.13 193.87 272.57 165.59 266.91C137.31 261.25 104.43 291.66 73.67 266.91C91.35 257.72 116.1 267.97 150.39 238.63C184.68 209.28 209.43 201.86 196.35 190.19C183.27 178.53 157.46 217.42 136.25 190.19C115.04 162.97 185.74 172.52 206.95 154.84C228.17 137.16 262.81 92.27 301.7 92.27Z" fill="#FD9B40" fill-opacity="1.000000" fill-rule="evenodd"/>
</svg>
